<?xml version="1.0" encoding="UTF-8" standalone="no"?>
<svg
   xmlns:dc="http://purl.org/dc/elements/1.1/"
   xmlns:cc="http://creativecommons.org/ns#"
   xmlns:rdf="http://www.w3.org/1999/02/22-rdf-syntax-ns#"
   xmlns:svg="http://www.w3.org/2000/svg"
   xmlns="http://www.w3.org/2000/svg"
   xmlns:sodipodi="http://sodipodi.sourceforge.net/DTD/sodipodi-0.dtd"
   xmlns:inkscape="http://www.inkscape.org/namespaces/inkscape"
   width="24"
   height="24"
   viewBox="0 0 24 24"
   version="1.1"
   id="svg4520"
   sodipodi:docname="phone.svg"
   inkscape:version="0.92.2 (5c3e80d, 2017-08-06)">
  <metadata
     id="metadata4526">
    <rdf:RDF>
      <cc:Work
         rdf:about="">
        <dc:format>image/svg+xml</dc:format>
        <dc:type
           rdf:resource="http://purl.org/dc/dcmitype/StillImage" />
        <dc:title></dc:title>
      </cc:Work>
    </rdf:RDF>
  </metadata>
  <defs
     id="defs4524" />
  <sodipodi:namedview
     pagecolor="#ffffff"
     bordercolor="#666666"
     borderopacity="1"
     objecttolerance="10"
     gridtolerance="10"
     guidetolerance="10"
     inkscape:pageopacity="0"
     inkscape:pageshadow="2"
     inkscape:window-width="1604"
     inkscape:window-height="1368"
     id="namedview4522"
     showgrid="false"
     inkscape:zoom="17.270833"
     inkscape:cx="13.535385"
     inkscape:cy="6.2610081"
     inkscape:window-x="945"
     inkscape:window-y="0"
     inkscape:window-maximized="0"
     inkscape:current-layer="svg4520" />
  <path
     fill="none"
     d="M0 0h24v24H0z"
     id="path4516" />
  <circle
     style="fill:#ffffff;fill-opacity:1;stroke:none;stroke-width:1.2419312;stroke-opacity:1"
     id="path4528"
     cx="12"
     cy="12"
     r="12" />
  <path
     d="m 5.77,9.371111 c 0.956666,0 1.882222,0.155555 2.745556,0.435555 C 8.787778,9.9 9.091112,9.830003 9.301112,9.62 l 1.22111,-1.532222 c 2.201112,1.05 4.262222,3.033333 5.358889,5.312222 l -1.516667,1.291111 c -0.21,0.217777 -0.272222,0.521111 -0.186666,0.793333 0.287777,0.863334 0.435555,1.788889 0.435555,2.745556 0,0.42 0.35,0.77 0.77,0.77 h 2.691111 C 18.494444,19 19,18.813333 19,18.23 19,11.004444 12.987778,5 5.77,5 5.217778,5 5,5.49 5,5.917778 v 2.683333 c 0,0.42 0.35,0.77 0.77,0.77 z"
     id="path4518"
     style="fill:#e33b3b;fill-opacity:1;stroke-width:0.77777779"
     inkscape:connector-curvature="0" />
</svg>
